<?xml version="1.0" encoding="UTF-8"?><svg xmlns="http://www.w3.org/2000/svg" viewBox="0 0 35.48 35.36"><defs><style>.d{fill:#385f47;}</style></defs><g id="a"/><g id="b"><g id="c"><g><path class="d" d="M22.49,18.48c0,.34-.02,.57,0,.8,.02,.19,.14,.37,.09,.57-.15,.57-.05,1.16-.12,1.73-.03,.25-.02,.51-.07,.75-.07,.36-.1,.72-.16,1.08-.06,.4-.15,.8-.24,1.19-.08,.33-.19,.66-.28,.99-.09,.35-.21,.7-.35,1.03-.09,.2-.16,.41-.26,.61-.17,.35-.31,.72-.47,1.07-.16,.37-.38,.7-.57,1.04-.19,.34-.4,.66-.6,.99-.23,.38-.49,.73-.8,1.06-.3,.32-.54,.7-.88,.99-.41,.35-.8,.72-1.25,1.01-.39,.25-.79,.51-1.22,.71-.3,.14-.54,.37-.83,.51-.18,.09-.38,.13-.57,.19-.21,.07-.43,.13-.64,.21-.1,.04-.22,.07-.31,.08-.2,.02-.39,.07-.57,.12-.29,.07-.58,.02-.86,.09-.21,.05-.43,.11-.64-.02-.05-.03-.15-.02-.21,.01-.09,.06-.2,.07-.28,.04-.32-.09-.66-.11-.98-.21-.22-.06-.46-.12-.68-.18-.14-.04-.28-.08-.42-.15-.24-.12-.5-.21-.74-.32-.19-.08-.31-.25-.49-.35-.22-.12-.43-.26-.66-.37-.3-.14-.56-.36-.77-.6-.25-.29-.55-.52-.81-.8-.24-.27-.53-.51-.77-.79-.21-.24-.36-.52-.52-.79-.15-.27-.35-.52-.5-.8-.11-.19-.27-.34-.36-.54-.2-.43-.48-.82-.64-1.27-.12-.32-.25-.63-.36-.96-.06-.16-.15-.32-.21-.5-.06-.21-.13-.41-.21-.61-.12-.29-.17-.59-.29-.88-.08-.2-.12-.42-.18-.63-.09-.27-.13-.55-.21-.82-.05-.16-.09-.33-.12-.5-.03-.18-.1-.36-.15-.54-.02-.07-.02-.14-.04-.2-.08-.29-.03-.61-.15-.9,0-.01,0-.03,0-.04,.05-.37-.1-.73-.08-1.1,.02-.63-.12-1.25-.06-1.88,.04-.5,.02-1,.09-1.49,.05-.32,.03-.64,.11-.96,.06-.24,.07-.52,.11-.78,.03-.2,.03-.42,.16-.61,.08-.1,.06-.27,.09-.4,.05-.27,.12-.55,.19-.81,.08-.34,.17-.69,.29-1.03,.13-.36,.24-.73,.41-1.08,.18-.36,.37-.72,.54-1.08,.13-.27,.23-.57,.38-.83,.16-.28,.28-.6,.49-.84,.27-.3,.42-.66,.68-.96,.14-.16,.35-.31,.39-.56,.01-.06,.11-.12,.18-.17,.13-.1,.24-.2,.32-.36,.1-.19,.32-.3,.49-.41,.2-.13,.34-.31,.51-.46,.22-.19,.48-.3,.69-.48,.2-.16,.43-.29,.61-.47,.16-.15,.31-.31,.45-.48,.17-.2,.33-.4,.47-.61,.09-.13,.21-.25,.31-.38,.1-.13,.12-.27,.17-.41,.05-.12,.09-.25,.15-.36,.1-.19,.1-.4,.18-.59,.08-.19,.08-.44,.27-.56,.13-.08,.26-.17,.4-.23,.3-.14,.56-.38,.88-.5,.34-.13,.65-.32,1-.45,.47-.17,.81,.04,1.17,.26,.19,.12,.35,.27,.58,.32,.16,.03,.29,.17,.44,.26,.27,.17,.54,.34,.81,.52,.17,.11,.22,.3,.23,.47,.02,.24,.12,.47,.14,.69,.03,.3,.18,.55,.29,.79,.12,.27,.24,.57,.5,.79,.16,.14,.34,.32,.43,.53,.08,.18,.21,.32,.35,.41,.19,.11,.33,.28,.53,.38,.15,.08,.32,.22,.46,.37,.19,.19,.41,.36,.64,.52,.29,.2,.56,.42,.72,.75,.03,.06,.08,.1,.12,.14,.21,.25,.43,.48,.62,.74,.19,.27,.32,.59,.5,.86,.19,.29,.28,.62,.47,.91,.19,.28,.32,.58,.46,.88,.16,.35,.3,.71,.44,1.06,.09,.22,.16,.44,.26,.66,.12,.29,.26,.56,.35,.86,.12,.39,.25,.79,.35,1.18,.07,.28,.13,.57,.2,.85,.05,.2,.01,.41,.12,.61,.07,.12,.06,.31,.07,.45,.02,.25,.11,.49,.1,.74-.02,.45,.16,.89,.08,1.23Zm-20.68,.57c.06,.49-.07,1.1,.07,1.7,.06,.27,.04,.56,.07,.84,.03,.27,.14,.54,.1,.82,0,.01,0,.03,0,.04,.14,.29,.14,.61,.21,.91,.06,.26,.14,.52,.19,.78,.02,.12,.02,.25,.08,.36,.1,.21,.16,.44,.21,.66,.05,.24,.19,.45,.25,.68,.06,.26,.2,.49,.27,.75,.07,.26,.15,.53,.27,.77,.21,.43,.37,.88,.64,1.28,.17,.25,.28,.54,.44,.8,.26,.41,.52,.82,.81,1.2,.24,.32,.46,.65,.76,.92,.21,.19,.43,.38,.65,.56,.2,.16,.42,.3,.62,.45,.21,.16,.47,.25,.71,.39,.27,.15,.54,.3,.85,.39,.21,.06,.43,.1,.63,.16,.29,.09,.58,.15,.88,.14,.05,0,.09,0,.14,0,.34,.1,.69,.13,1.04,.15,.22,0,.45-.02,.67-.06,.27-.05,.54-.11,.78-.2,.43-.17,.9-.26,1.28-.55,.36-.27,.8-.44,1.19-.69,.34-.22,.65-.49,.96-.75,.45-.38,.84-.83,1.22-1.28,.12-.14,.2-.3,.31-.44,.16-.21,.28-.44,.42-.67,.14-.22,.26-.44,.41-.66,.16-.23,.23-.5,.37-.74,.13-.22,.24-.45,.33-.68,.1-.28,.19-.56,.3-.84,.07-.17,.15-.33,.21-.5,.04-.12,.08-.26,.12-.4,.06-.26,.14-.52,.22-.77,.05-.16,.03-.34,.09-.49,.12-.31,.15-.64,.2-.95,.04-.28,.15-.56,.1-.86,0-.02,0-.04,0-.06,.15-.34,.12-.72,.13-1.07,.03-1.23,.08-2.47-.05-3.71-.03-.25-.13-.5-.09-.76,0-.01,0-.03,0-.04-.1-.19-.11-.41-.13-.62-.02-.18-.06-.36-.11-.52-.08-.25-.13-.52-.21-.77-.1-.34-.18-.69-.35-1.02-.11-.21-.19-.46-.25-.7-.1-.39-.29-.75-.43-1.11-.15-.39-.31-.79-.54-1.16-.16-.25-.25-.55-.41-.81-.18-.31-.31-.65-.54-.94-.09-.12-.21-.22-.29-.34-.14-.21-.3-.42-.46-.62-.35-.43-.85-.68-1.24-1.06-.15-.15-.35-.25-.5-.39-.22-.19-.46-.34-.68-.53-.27-.23-.54-.48-.76-.74-.18-.21-.38-.45-.49-.73-.05-.13-.1-.25-.15-.38-.09-.24-.21-.47-.26-.72-.05-.23-.16-.43-.19-.67-.02-.13-.1-.27-.28-.32-.08-.02-.18-.08-.26-.14-.23-.19-.43-.44-.77-.43-.04,0-.07-.04-.1-.05-.11-.01-.18-.15-.31-.09-.28,.13-.56,.26-.85,.37-.31,.11-.5,.32-.52,.64-.02,.31-.17,.58-.28,.85-.19,.43-.5,.81-.74,1.22-.14,.24-.26,.54-.56,.66-.01,0-.03,.01-.03,.02-.14,.38-.55,.49-.78,.79,0,0-.02,.01-.04,.02-.29,.08-.49,.3-.74,.45-.11,.06-.24,.1-.31,.19-.2,.25-.46,.44-.65,.69-.12,.16-.31,.19-.44,.31-.31,.29-.46,.68-.7,1.02-.17,.25-.28,.54-.43,.81-.2,.36-.43,.69-.61,1.07-.2,.43-.4,.87-.62,1.3-.12,.23-.21,.49-.26,.76-.02,.13-.04,.27-.09,.39-.07,.16-.11,.32-.12,.48-.02,.19-.06,.38-.11,.56-.08,.3-.13,.61-.2,.92-.09,.38-.14,.78-.15,1.17-.02,.51-.13,1-.1,1.51,.02,.31,0,.63,0,1.06Z"/><path class="d" d="M33.85,11.17c.08-.66,.1-1.32,.07-1.99-.01-.22-.05-.45-.13-.67-.05-.12-.01-.26-.09-.39-.11-.2-.18-.43-.25-.65-.12-.39-.31-.76-.45-1.14-.12-.32-.17-.65-.3-.96,0-.01,0-.03,0-.04,.05-.35-.08-.69-.1-1.04-.01-.24-.04-.49-.07-.74-.02-.23,.04-.44,.09-.65,.1-.41-.02-.74-.29-1.03-.03-.03-.05-.07-.07-.11-.06-.11-.12-.25-.29-.15-.01,0-.03,0-.04,0-.29-.13-.57,.07-.86,0-.18-.04-.31,.04-.42,.17-.17,.2-.37,.36-.61,.46-.05,.02-.06,.09-.11,.12-.33,.23-.69,.38-1.06,.53-.14,.06-.32,.08-.48,.11-.45,.09-.89,.13-1.35,.16-.28,.02-.58,.07-.85,.16-.2,.06-.43,.09-.6,.25-.15,.14-.37,.11-.56,.15-.32,.06-.56,.28-.85,.37-.18,.06-.35,.15-.5,.25-.34,.2-.67,.43-.94,.72-.26,.28-.58,.49-.9,.71-.07,.05-.13,.12-.18,.19-.11,.16-.29,.23-.46,.31-.26,.12-.45,.04-.68-.08-.26-.14-.37-.6-.28-.83,.14-.36,.46-.56,.7-.82,.29-.31,.65-.53,.98-.78,.43-.32,.89-.6,1.36-.87,.17-.1,.29-.28,.5-.32,.28-.06,.5-.26,.75-.38,.14-.07,.31,0,.46-.09,.33-.18,.72-.18,1.08-.31,.04-.01,.09-.02,.11,.02,.06,.08,.16,.07,.21,.05,.16-.1,.35-.05,.51-.13,.15-.07,.34-.07,.5-.08,.25-.02,.49-.13,.75-.1,.1,0,.2-.05,.28-.09,.18-.09,.38-.15,.56-.25,.27-.14,.41-.41,.63-.61,.33-.3,.63-.63,1.15-.6,.6,.04,1.2,0,1.79,.01,.21,0,.37,.14,.48,.3,.11,.17,.25,.31,.36,.48,.18,.3,.38,.6,.56,.91,.11,.19,.26,.35,.34,.56,.08,.2,.1,.4,0,.59-.01,.02-.02,.05-.02,.07-.09,.62-.1,1.24-.07,1.86,.01,.23,.11,.46,.18,.69,.09,.28,.21,.55,.28,.84,.04,.17,.15,.29,.22,.43,.1,.21,.13,.44,.22,.66,.11,.25,.11,.54,.23,.79,0,.02,0,.04,0,.06-.02,.42,.12,.82,.09,1.24-.03,.38,0,.76,0,1.14,0,.2-.02,.41,0,.61,.02,.36-.09,.71-.13,1.07-.02,.2-.06,.39-.11,.58-.06,.24-.07,.51-.21,.73-.05,.08-.04,.17-.07,.25-.12,.28-.24,.57-.31,.87-.03,.13-.07,.28-.15,.4-.12,.18-.14,.41-.23,.6-.09,.2-.17,.42-.24,.63-.1,.27-.22,.54-.34,.8-.11,.24-.23,.49-.38,.72-.22,.34-.34,.73-.59,1.06-.11,.15-.23,.3-.32,.45-.14,.21-.28,.41-.42,.62-.1,.14-.19,.28-.3,.41-.12,.13-.25,.26-.32,.42-.05,.11-.17,.15-.24,.23-.23,.25-.45,.5-.64,.79-.17,.27-.44,.46-.68,.68-.17,.15-.34,.31-.51,.45-.2,.17-.38,.38-.61,.52-.38,.23-.7,.53-1.08,.76-.31,.19-.6,.4-.92,.58-.27,.15-.55,.29-.86,.39-.18,.06-.35,.18-.53,.25-.2,.07-.37,.2-.6,.19-.16,0-.33,.1-.5,.07-.07,0-.13,0-.18-.06-.15-.16-.36-.27-.43-.5-.08-.23,.08-.41,.2-.56,.28-.38,.71-.58,1.13-.74,.27-.1,.54-.19,.78-.35,.3-.2,.63-.34,.93-.54,.3-.2,.59-.41,.89-.6,.21-.14,.41-.3,.58-.49,.19-.21,.44-.37,.65-.57,.34-.31,.68-.63,.93-1.02,.08-.13,.21-.23,.31-.35,.12-.13,.22-.26,.27-.44,.03-.13,.16-.23,.24-.33,.12-.15,.23-.31,.35-.46,.11-.13,.21-.27,.28-.43,.04-.11,.17-.17,.24-.28,.18-.29,.37-.58,.53-.88,.15-.29,.27-.6,.45-.88,.21-.33,.32-.71,.48-1.06,.11-.25,.22-.51,.28-.79,.07-.3,.14-.61,.28-.9,.06-.12,.05-.28,.08-.42,.03-.15,.06-.34,.12-.45,.09-.15,.06-.3,.11-.44,.09-.26,.16-.53,.15-.81,0-.08,0-.16,0-.24Z"/><path class="d" d="M11.2,31.88c-.1,0-.2,0-.3,0-.35,.04-.64-.14-.95-.24-.31-.09-.61-.23-.91-.36-.16-.07-.33-.16-.46-.27-.43-.35-.87-.69-1.25-1.09-.22-.23-.36-.51-.54-.76-.2-.28-.36-.58-.53-.87-.14-.23-.24-.49-.37-.73-.17-.34-.29-.71-.49-1.02-.19-.29-.29-.6-.4-.91-.13-.38-.3-.74-.41-1.12-.1-.37-.22-.75-.26-1.14-.04-.36-.14-.71-.15-1.08-.22-.18-.02-.48-.19-.68,0,0,0-.03,0-.04,.05-.33-.07-.64-.09-.96-.05-.79-.08-1.59-.04-2.38,.02-.4,.01-.81,.07-1.21,.05-.37,.08-.75,.16-1.11,.03-.16,.08-.34,.13-.5,.06-.16,.06-.33,.13-.49,.1-.27,.13-.57,.23-.85,.11-.29,.16-.6,.25-.9,.06-.22,.15-.43,.21-.65,.05-.19,.11-.38,.17-.56,.06-.19,.15-.37,.23-.55,.12-.27,.25-.54,.37-.81,.05-.12,.14-.2,.26-.26,.1-.05,.19-.09,.27-.16,.07-.05,.13-.08,.21-.08,.07,0,.13,0,.2-.05,.14-.1,.49,.08,.52,.26,.09,.45,.06,.54-.14,1.04-.05,.12-.08,.26-.11,.4-.05,.22-.17,.44-.28,.64-.18,.33-.31,.68-.4,1.05-.06,.25-.1,.52-.21,.77-.05,.1-.07,.24-.07,.34,0,.22-.06,.44-.11,.64-.05,.21,.01,.44-.13,.62,0,0,0,.03,0,.04,.05,.3-.07,.59-.1,.88-.04,.34-.01,.68-.07,1-.15,.86-.03,1.71-.07,2.57,0,.02,0,.04,0,.06-.06,.53,.07,1.05,.1,1.57,.01,.22,.01,.47,.07,.68,.08,.27,.11,.56,.21,.83,.05,.14,.05,.3,.09,.45,.1,.34,.14,.69,.26,1.02,.08,.22,.18,.43,.31,.64,.13,.21,.23,.46,.35,.7,.18,.37,.36,.74,.6,1.09,.23,.34,.52,.64,.74,.98,.16,.25,.4,.43,.58,.65,.1,.12,.25,.12,.36,.22,.27,.23,.53,.5,.85,.67,.17,.09,.35,.16,.53,.21,.14,.04,.27,.1,.42,.1,.57-.01,1.1-.16,1.6-.42,.12-.06,.24-.12,.36-.18,.25-.12,.39-.35,.57-.54,.3-.32,.7-.54,.94-.92,.16-.25,.32-.51,.51-.73,.17-.2,.32-.41,.46-.63,.21-.34,.42-.69,.56-1.06,.13-.33,.22-.69,.35-1.02,.13-.31,.15-.65,.32-.94,.06-.1,.06-.24,.07-.34,.02-.19,.07-.37,.12-.54,.07-.22,0-.46,.13-.66,.02-.03,.01-.09,.01-.13,.02-.68,.1-1.35,.1-2.03,0-.2,0-.43,.12-.63,0-.01,.01-.04,.01-.05-.08-.33,.04-.53,.36-.57,.04,0,.07-.02,.1-.05,.19-.12,.37-.21,.62-.13,.15,.05,.32,.07,.37,.22,.04,.13,.09,.26,.1,.4,0,.3,0,.59,0,.89,0,.13-.09,.25-.08,.39,.01,.43,.05,.87-.01,1.29-.03,.26-.05,.53-.12,.79-.05,.2-.1,.41-.1,.62,0,.28-.09,.54-.14,.8-.03,.17-.09,.33-.11,.5-.02,.23-.1,.46-.17,.69-.07,.22-.13,.45-.21,.67-.11,.3-.29,.57-.4,.87-.21,.57-.56,1.08-.84,1.61-.1,.19-.27,.34-.39,.53-.14,.22-.33,.41-.48,.63-.22,.33-.53,.58-.84,.82-.16,.12-.3,.25-.46,.36-.15,.12-.31,.24-.48,.31-.37,.14-.71,.36-1.08,.51-.19,.07-.39,.12-.57,.22-.15,.08-.34,0-.46,.17-.02,.02-.09,.02-.13,.02-.18,0-.37,0-.55,0Z"/></g></g></g></svg>