<?xml version="1.0" encoding="UTF-8"?><svg xmlns="http://www.w3.org/2000/svg" viewBox="0 0 25.75 35.15"><defs><style>.d{fill:#385f47;}</style></defs><g id="a"/><g id="b"><g id="c"><g><path class="d" d="M13.07,0c.72-.04,1.41,.14,2.1,.29,.82,.18,1.66,.28,2.45,.59,1.23,.47,2.38,1.1,3.37,1.96,.91,.79,1.81,1.62,2.44,2.66,.37,.61,.8,1.18,1.08,1.83,.18,.42,.3,.86,.44,1.3,.2,.66,.51,1.29,.63,1.97,.07,.39,.15,.77,.15,1.17,0,.42,.02,.84,.01,1.26-.02,.91-.18,1.8-.39,2.69-.08,.35,0,.71-.1,1.07-.21,.77-.49,1.51-.81,2.24-.36,.82-.62,1.68-.99,2.5-.19,.42-.46,.77-.67,1.17-.98,1.87-2.18,3.59-3.35,5.34-.58,.87-1.33,1.61-1.94,2.46-.38,.54-.88,.99-1.26,1.52-.56,.79-1.3,1.39-1.98,2.05-.32,.31-.65,.6-.99,.89-.24,.2-.45,.2-.68,.09-.24-.12-.46-.29-.66-.48-.8-.72-1.45-1.58-2.17-2.37-.65-.71-1.24-1.48-1.91-2.17-.35-.36-.6-.79-.9-1.19-.77-1.04-1.57-2.06-2.26-3.16-.51-.81-1.02-1.61-1.46-2.46-.46-.9-.94-1.8-1.32-2.73-.5-1.25-1.13-2.47-1.35-3.83-.17-1-.53-1.97-.5-3.01,0-.23,.08-.44,.07-.67-.01-.19-.14-.34-.13-.54,.05-.79,.16-1.58,.31-2.36,.37-1.85,1.28-3.44,2.36-4.94,.49-.68,1.09-1.29,1.72-1.87,.52-.47,1.04-.94,1.62-1.33,1.03-.71,2.18-1.19,3.39-1.46,.9-.21,1.81-.39,2.74-.44,.31-.02,.62-.03,.93-.05Zm10.27,13.16c0-.35,0-.69-.05-1.04-.06-.5-.11-1.01-.2-1.5-.26-1.4-.96-2.63-1.63-3.86-.39-.71-.98-1.29-1.61-1.82-.71-.61-1.47-1.14-2.34-1.5-.74-.31-1.52-.52-2.3-.72-.63-.16-1.26-.31-1.91-.27-.56,.04-1.13,.04-1.69,.09-.51,.04-1.01,.1-1.5,.22-1.3,.33-2.39,1.06-3.47,1.81-.78,.54-1.48,1.17-2.06,1.91-.51,.65-.82,1.42-1.19,2.16-.6,1.19-.79,2.44-.89,3.73-.03,.37,.03,.74-.01,1.09-.07,.54,.07,1.04,.17,1.55,.24,1.26,.66,2.47,1.12,3.67,.3,.79,.55,1.6,.96,2.33,.54,.96,1.07,1.92,1.67,2.84,.64,.98,1.44,1.86,2.04,2.87,.84,1.41,1.89,2.63,3.03,3.79,.39,.4,.72,.86,1.12,1.27,.16,.16,.34,.19,.5,.04,.32-.31,.62-.64,.93-.95,.51-.51,.9-1.11,1.36-1.66,.59-.71,1.19-1.41,1.75-2.15,.51-.69,.94-1.43,1.44-2.12,1.25-1.69,2.21-3.54,3.12-5.42,.49-1,.8-2.08,1.1-3.15,.3-1.05,.6-2.11,.55-3.23Z"/><path class="d" d="M12.48,5.92c.73-.02,1.45,.04,2.16,.18,.5,.1,.97,.33,1.43,.56,.65,.32,1.26,.7,1.76,1.24,.98,1.06,1.7,2.25,1.97,3.69,.01,.07,.01,.15,0,.23-.06,.51,.02,1.01,0,1.52-.03,.99-.26,1.92-.75,2.8-.5,.89-1.11,1.68-1.92,2.31-.85,.66-1.81,1.11-2.85,1.33-.75,.16-1.52,.09-2.28,.05-1.03-.06-1.92-.5-2.81-.93-.6-.29-1.07-.78-1.5-1.28-.57-.65-1.01-1.38-1.36-2.16-.26-.57-.38-1.17-.43-1.79-.03-.33-.05-.66-.05-.99-.01-1.51,.52-2.83,1.44-3.99,1.02-1.28,2.34-2.12,3.88-2.65,.42-.15,.86-.09,1.29-.11Zm.26,11.6c.62,.03,1.21-.1,1.78-.34,.89-.36,1.65-.88,2.26-1.63,.67-.84,.72-1.85,.76-2.86,.04-.93-.33-1.77-.83-2.49-.54-.78-1.24-1.41-2.22-1.69-.65-.18-1.27-.31-1.96-.22-.89,.12-1.71,.31-2.42,.92-.69,.59-1.26,1.24-1.56,2.13-.17,.51-.24,1.04-.28,1.57-.02,.25-.1,.49-.04,.75,.29,1.27,.96,2.28,1.98,3.06,.37,.28,.73,.58,1.19,.68,.44,.09,.89,.15,1.34,.12Z"/></g></g></g></svg>