<?xml version="1.0" encoding="UTF-8"?><svg xmlns="http://www.w3.org/2000/svg" viewBox="0 0 142.15 85.91"><defs><style>.d{fill:#1d1d1b;}.e{fill:#3aa236;}</style></defs><g id="a"/><g id="b"><g id="c"><g><g><path class="d" d="M8.18,34.76c-1.32,0-2.43-.21-3.31-.62-.89-.42-1.58-1.02-2.1-1.83-.51-.8-.88-1.78-1.09-2.93-.22-1.15-.32-2.46-.32-3.93v-2.84H5.94v3.2c0,1.71,.14,2.94,.43,3.69,.29,.75,.86,1.12,1.72,1.12,.58,0,1.01-.14,1.31-.41,.29-.27,.49-.7,.6-1.3,.1-.6,.15-1.38,.15-2.34,0-1.19-.25-2.28-.75-3.27-.5-.99-1.25-2.01-2.27-3.07l-2.35-2.42c-.65-.67-1.24-1.39-1.76-2.15-.52-.76-.94-1.6-1.25-2.54-.31-.93-.46-1.98-.46-3.13,0-1.67,.21-3.09,.62-4.25,.41-1.16,1.1-2.03,2.08-2.63,.98-.6,2.31-.89,4.01-.89,1.28,0,2.33,.2,3.15,.59,.83,.39,1.47,.96,1.93,1.72,.46,.75,.79,1.67,.98,2.75,.19,1.08,.29,2.31,.29,3.69v1.97h-4.46v-2.28c0-.96-.05-1.76-.15-2.4-.1-.64-.29-1.12-.57-1.44-.28-.32-.68-.48-1.21-.48s-.92,.11-1.23,.33c-.31,.22-.54,.57-.68,1.03-.14,.46-.21,1.06-.21,1.8,0,.66,.08,1.23,.25,1.72,.17,.48,.43,.95,.78,1.39,.35,.45,.78,.95,1.3,1.5l2.62,2.84c1.25,1.35,2.23,2.75,2.93,4.21,.7,1.46,1.05,3.08,1.05,4.88,0,1.9-.21,3.5-.62,4.8-.41,1.29-1.1,2.27-2.06,2.94-.96,.66-2.28,.99-3.94,.99Z"/><path class="d" d="M18.79,34.4V2.6h10.66V6.77h-5.82v9.25h5.53v4.08h-5.53v10.12h6.03v4.17h-10.88Z"/><path class="d" d="M33.83,34.4V2.6h6.02l4.52,23.23L48.61,2.6h6.05v31.8h-4.32v-11.85l.18-10.88-4.28,22.58h-3.85l-4.46-22.58,.18,10.88v11.85h-4.28Z"/><path class="d" d="M60.04,34.4V2.6h10.66V6.77h-5.82v9.25h5.53v4.08h-5.53v10.12h6.03v4.17h-10.88Z"/><path class="d" d="M75.08,34.4V2.6h3.79l6.74,19.08-.34-8.67V2.6h4.35v31.8h-3.43l-6.92-19.75,.27,8.35v11.4h-4.46Z"/><path class="d" d="M101.51,34.76c-1.54,0-2.82-.36-3.85-1.07s-1.79-1.75-2.3-3.12c-.51-1.37-.77-3.02-.77-4.96V11.76c0-1.46,.12-2.77,.36-3.94,.24-1.17,.63-2.17,1.17-3,.54-.83,1.26-1.47,2.17-1.92,.9-.45,2.02-.67,3.34-.67,1.2,0,2.23,.2,3.08,.59,.85,.39,1.54,.96,2.08,1.69,.54,.73,.93,1.62,1.17,2.67,.25,1.04,.37,2.21,.37,3.51v4.37h-4.68v-4.06c0-1.57-.13-2.72-.4-3.46-.26-.74-.79-1.11-1.59-1.11-.88,0-1.47,.4-1.76,1.2-.29,.8-.44,1.92-.44,3.35v14.85c0,1.11,.06,2.01,.19,2.72,.13,.71,.34,1.22,.64,1.55,.3,.33,.72,.5,1.26,.5,.82,0,1.37-.39,1.66-1.16,.29-.77,.43-1.99,.43-3.67v-4.55h4.75v4.5c0,2.01-.24,3.69-.71,5.03-.47,1.34-1.21,2.35-2.23,3.01s-2.34,.99-3.97,.99Z"/><path class="d" d="M113.09,34.4V2.6h10.66V6.77h-5.82v9.25h5.53v4.08h-5.53v10.12h6.03v4.17h-10.88Z"/><path class="d" d="M133.93,34.76c-1.32,0-2.43-.21-3.31-.62-.89-.42-1.58-1.02-2.1-1.83-.51-.8-.88-1.78-1.09-2.93-.22-1.15-.32-2.46-.32-3.93v-2.84h4.59v3.2c0,1.71,.14,2.94,.43,3.69,.29,.75,.86,1.12,1.72,1.12,.58,0,1.01-.14,1.31-.41,.29-.27,.49-.7,.6-1.3,.1-.6,.15-1.38,.15-2.34,0-1.19-.25-2.28-.75-3.27-.5-.99-1.25-2.01-2.27-3.07l-2.35-2.42c-.65-.67-1.24-1.39-1.76-2.15-.52-.76-.94-1.6-1.25-2.54-.31-.93-.46-1.98-.46-3.13,0-1.67,.21-3.09,.62-4.25,.41-1.16,1.1-2.03,2.08-2.63,.98-.6,2.31-.89,4.01-.89,1.28,0,2.33,.2,3.15,.59,.83,.39,1.47,.96,1.93,1.72,.46,.75,.79,1.67,.98,2.75,.19,1.08,.29,2.31,.29,3.69v1.97h-4.46v-2.28c0-.96-.05-1.76-.15-2.4-.1-.64-.29-1.12-.57-1.44-.28-.32-.68-.48-1.21-.48s-.92,.11-1.23,.33c-.31,.22-.54,.57-.68,1.03-.14,.46-.21,1.06-.21,1.8,0,.66,.08,1.23,.25,1.72,.17,.48,.43,.95,.78,1.39,.35,.45,.78,.95,1.3,1.5l2.62,2.84c1.25,1.35,2.23,2.75,2.93,4.21,.7,1.46,1.05,3.08,1.05,4.88,0,1.9-.21,3.5-.62,4.8-.41,1.29-1.1,2.27-2.06,2.94-.96,.66-2.28,.99-3.94,.99Z"/><path class="d" d="M2.38,74.4v-31.8h7.14c1.61,0,2.91,.32,3.88,.97,.98,.64,1.68,1.57,2.12,2.79,.44,1.22,.66,2.69,.66,4.41l.02,14.34c0,2.08-.23,3.81-.68,5.19-.45,1.38-1.18,2.41-2.18,3.08-1,.67-2.33,1.01-3.99,1.01H2.38Zm4.84-3.76h1.59c.57,0,1.04-.11,1.42-.34,.38-.23,.66-.64,.85-1.22,.19-.58,.28-1.41,.28-2.48l-.02-15.7c0-1.63-.2-2.79-.6-3.5-.4-.71-1.1-1.07-2.1-1.07h-1.43v24.32Z"/><path class="d" d="M21.19,74.4v-31.8h10.66v4.17h-5.82v9.25h5.53v4.08h-5.53v10.12h6.03v4.17h-10.88Z"/><path class="d" d="M43.46,74.4v-31.8h7.3c1.26,0,2.32,.19,3.15,.58,.84,.39,1.5,.96,1.98,1.72s.83,1.7,1.03,2.81c.21,1.11,.31,2.4,.31,3.86v.67c0,2.05-.18,3.79-.53,5.23-.36,1.44-.99,2.53-1.91,3.28-.92,.75-2.21,1.12-3.87,1.12h-2.62v12.54h-4.84Zm4.84-16.53h1.66c.71,0,1.24-.18,1.59-.54s.58-.96,.7-1.8c.11-.84,.17-1.95,.17-3.35v-.61c-.01-1.72-.16-3.03-.45-3.91-.29-.89-.95-1.33-1.97-1.33h-1.7v11.54Z"/><path class="d" d="M58.66,74.4l4.54-31.8h6.39l4.82,31.8h-4.52l-.76-5.67h-5.13l-.69,5.67h-4.66Zm5.82-9.56h4.16l-2.13-15.97h-.07l-1.95,15.97Z"/><path class="d" d="M80.41,74.4v-12.7l-5.33-19.1h4.62l3.14,11.89h.07l2.8-11.89h4.61l-5.08,19.1v12.7h-4.84Z"/><path class="d" d="M99.41,74.76c-1.32,0-2.43-.21-3.31-.62-.89-.42-1.58-1.02-2.1-1.83-.51-.8-.88-1.78-1.09-2.93-.22-1.15-.32-2.46-.32-3.93v-2.84h4.59v3.2c0,1.71,.14,2.94,.43,3.69,.29,.75,.86,1.12,1.72,1.12,.58,0,1.01-.14,1.31-.41,.29-.27,.49-.7,.6-1.3,.1-.6,.15-1.38,.15-2.34,0-1.19-.25-2.28-.75-3.27-.5-.99-1.25-2.01-2.27-3.07l-2.35-2.42c-.65-.67-1.24-1.39-1.76-2.15-.52-.76-.94-1.6-1.25-2.54-.31-.93-.46-1.98-.46-3.13,0-1.67,.21-3.09,.62-4.25,.41-1.16,1.1-2.03,2.08-2.63,.98-.6,2.31-.89,4.01-.89,1.28,0,2.33,.2,3.15,.59,.83,.39,1.47,.96,1.93,1.72,.46,.75,.79,1.67,.98,2.75,.19,1.08,.29,2.31,.29,3.69v1.97h-4.46v-2.28c0-.96-.05-1.76-.15-2.4-.1-.64-.29-1.12-.57-1.44-.28-.32-.68-.48-1.21-.48s-.92,.11-1.23,.33c-.31,.22-.54,.57-.68,1.03-.14,.46-.21,1.06-.21,1.8,0,.66,.08,1.23,.25,1.72,.17,.48,.43,.95,.78,1.39,.35,.45,.78,.95,1.3,1.5l2.62,2.84c1.25,1.35,2.23,2.75,2.93,4.21,.7,1.46,1.05,3.08,1.05,4.88,0,1.9-.21,3.5-.62,4.8-.41,1.29-1.1,2.27-2.06,2.94-.96,.66-2.28,.99-3.94,.99Z"/></g><g><path class="e" d="M127.92,64.69c-6.15,0-11.33-5.02-11.21-11.46,.11-6.06,5.08-11.13,11.47-11.01,6.05,.11,11.12,5.09,10.99,11.49-.12,6.08-5.09,10.99-11.24,10.98Zm5.08-8.99c.42-1.62,.5-3.25,.16-4.89-.37-1.81-1.19-3.4-2.35-4.83-.71-.87-1.5-1.66-2.45-2.28-.18-.12-.32-.11-.49,.01-1.66,1.16-3.02,2.59-4,4.38-1.01,1.84-1.37,3.81-1.06,5.89,.21,1.44,.72,2.79,1.42,4.06,.16,.29,.33,.57,.49,.86l-.04,.04c-.31-.24-.62-.46-.91-.71-1.69-1.49-2.68-3.38-3.15-5.56-.05-.24-.07-.49-.14-.72-.03-.11-.14-.21-.21-.31-.09,.08-.19,.14-.27,.23-.05,.05-.06,.14-.09,.21-.6,1.81-.71,3.64-.25,5.49,.61,2.44,1.99,4.28,4.29,5.37,1.78,.84,3.67,1.02,5.61,.73,2.81-.42,4.78-1.95,5.87-4.57,.69-1.65,.84-3.39,.58-5.16-.25-1.74-.87-3.33-1.87-4.76-.05-.07-.1-.15-.17-.21-.04-.04-.13-.07-.16-.05-.04,.02-.06,.11-.06,.16,0,.08,.04,.16,.05,.25,.07,.4,.15,.8,.19,1.2,.08,.69,.02,1.38-.08,2.06-.16,1.08-.46,2.13-.93,3.12Z"/><g><path class="e" d="M122.97,67.87c.35,0,.67,.03,.96,.09,.29,.06,.53,.15,.74,.29,.21,.13,.37,.31,.48,.53,.11,.22,.17,.49,.17,.82,0,.35-.08,.64-.25,.88-.17,.23-.42,.42-.75,.57,.45,.12,.79,.34,1.01,.65,.22,.31,.33,.68,.33,1.11,0,.35-.07,.65-.22,.91-.14,.26-.34,.47-.58,.63-.24,.16-.52,.28-.83,.36-.31,.08-.63,.12-.96,.12h-3.56v-6.94h3.46Zm-.21,2.81c.29,0,.52-.06,.71-.19,.19-.13,.28-.34,.28-.63,0-.16-.03-.29-.09-.4-.06-.1-.14-.18-.25-.24-.1-.06-.22-.1-.35-.12-.13-.02-.27-.03-.42-.03h-1.51v1.62h1.64Zm.09,2.95c.16,0,.31-.01,.45-.04s.27-.08,.38-.15,.2-.16,.26-.28,.1-.27,.1-.45c0-.36-.11-.61-.32-.76-.21-.15-.49-.23-.84-.23h-1.76v1.91h1.73Z"/><path class="e" d="M128.37,67.87v6.94h-1.61v-6.94h1.61Z"/><path class="e" d="M129.71,69.92c.16-.44,.4-.83,.71-1.16,.31-.33,.69-.59,1.14-.78,.45-.19,.95-.28,1.52-.28s1.08,.09,1.52,.28c.45,.19,.82,.45,1.13,.78,.31,.33,.55,.72,.71,1.16,.16,.44,.25,.93,.25,1.44s-.08,.98-.25,1.41c-.16,.44-.4,.82-.71,1.14-.31,.32-.69,.58-1.13,.76-.45,.18-.95,.28-1.52,.28s-1.07-.09-1.52-.28c-.45-.18-.83-.44-1.14-.76-.31-.32-.55-.71-.71-1.14-.16-.44-.25-.91-.25-1.41s.08-1,.25-1.44Zm1.48,2.3c.07,.28,.19,.52,.34,.74,.16,.22,.36,.4,.62,.53,.25,.13,.56,.2,.93,.2s.67-.07,.93-.2c.25-.13,.46-.31,.62-.53,.16-.22,.27-.47,.34-.74s.11-.56,.11-.85-.04-.6-.11-.89c-.07-.29-.19-.54-.34-.76-.16-.22-.36-.4-.62-.53-.25-.13-.56-.2-.93-.2s-.67,.07-.93,.2c-.25,.13-.46,.31-.62,.53-.16,.22-.27,.48-.34,.76-.07,.29-.11,.58-.11,.89s.04,.58,.11,.85Z"/></g></g></g></g></g></svg>