<?xml version="1.0" encoding="UTF-8"?><svg xmlns="http://www.w3.org/2000/svg" viewBox="0 0 34.16 34.16"><defs><style>.d{fill:#fff;}.e{fill:#265d43;}.f{stroke-width:2px;}.f,.g{fill:none;stroke:#265d43;stroke-miterlimit:10;}</style></defs><g id="a"/><g id="b"><g id="c"><g><line class="g" x1="16.83" y1="22.3" x2="16.83" y2="30.46"/><path class="e" d="M28.89,11.89c-7.67,.5-12.8,3.62-12.46,10.86,6.74,.17,11.04-3.37,12.46-10.86Z"/><path class="e" d="M15.63,22.65c-4.57-.66-6.61-4.12-7.71-8.63,3.9,.68,7.05,2.62,7.71,8.63Z"/><path class="e" d="M11.82,5.17c-.77,4.93-.2,9.15,4.56,11.18,3-5.39,.52-8.77-4.56-11.18Z"/><path class="d" d="M25.47,14.01c-4.6,.62-7.28,3.12-8.07,7.48,1.82-2.89,4.57-5.36,8.07-7.48Z"/><path class="d" d="M13.46,7.84c2.77,2.12,3.36,5.67,2.91,8.51-.39-2.64-1.35-6.11-2.91-8.51Z"/><circle class="f" cx="17.08" cy="17.08" r="16.08"/></g></g></g></svg>